<?xml version="1.0" encoding="UTF-8"?><svg xmlns="http://www.w3.org/2000/svg" xmlns:xlink="http://www.w3.org/1999/xlink" height="561pt" style="width:1245px;height:561px;" version="1.1" viewBox="0 0 1245 561" width="1245pt">
    <defs>
        <filter height="300%" id="f1" width="300%" x="-1" y="-1">
            <feGaussianBlur result="blurOut" stdDeviation="2.0"/>
            <feColorMatrix in="blurOut" result="blurOut2" type="matrix" values="0 0 0 0 0 0 0 0 0 0 0 0 0 0 0 0 0 0 .4 0"/>
            <feOffset dx="4.0" dy="4.0" in="blurOut2" result="blurOut3"/>
            <feBlend in="SourceGraphic" in2="blurOut3" mode="normal"/>
        </filter>
    </defs>
    <g>
        <line style="stroke: #A80036; stroke-width: 1.0; stroke-dasharray: 5.0,5.0;" x1="47" x2="47" y1="35.3516" y2="523.625"/>
        <line style="stroke: #A80036; stroke-width: 1.0; stroke-dasharray: 5.0,5.0;" x1="167" x2="167" y1="35.3516" y2="523.625"/>
        <line style="stroke: #A80036; stroke-width: 1.0; stroke-dasharray: 5.0,5.0;" x1="305" x2="305" y1="35.3516" y2="523.625"/>
        <line style="stroke: #A80036; stroke-width: 1.0; stroke-dasharray: 5.0,5.0;" x1="444" x2="444" y1="35.3516" y2="523.625"/>
        <line style="stroke: #A80036; stroke-width: 1.0; stroke-dasharray: 5.0,5.0;" x1="586" x2="586" y1="35.3516" y2="523.625"/>
        <line style="stroke: #A80036; stroke-width: 1.0; stroke-dasharray: 5.0,5.0;" x1="734" x2="734" y1="35.3516" y2="523.625"/>
        <line style="stroke: #A80036; stroke-width: 1.0; stroke-dasharray: 5.0,5.0;" x1="874" x2="874" y1="35.3516" y2="523.625"/>
        <line style="stroke: #A80036; stroke-width: 1.0; stroke-dasharray: 5.0,5.0;" x1="1021" x2="1021" y1="35.3516" y2="523.625"/>
        <line style="stroke: #A80036; stroke-width: 1.0; stroke-dasharray: 5.0,5.0;" x1="1176" x2="1176" y1="35.3516" y2="523.625"/>
        <rect fill="#FEFECE" filter="url(#f1)" height="30.3516" style="stroke: #A80036; stroke-width: 1.5;" width="81" x="5" y="0"/>
        <text fill="#000000" font-size="13" lengthAdjust="spacingAndGlyphs" textLength="67" x="12" y="20">MainThread</text>
        <rect fill="#FEFECE" filter="url(#f1)" height="30.3516" style="stroke: #A80036; stroke-width: 1.5;" width="81" x="5" y="521.6484"/>
        <text fill="#000000" font-size="13" lengthAdjust="spacingAndGlyphs" textLength="67" x="12" y="541.6484">MainThread</text>
        <rect fill="#FEFECE" filter="url(#f1)" height="30.3516" style="stroke: #A80036; stroke-width: 1.5;" width="130" x="100" y="0"/>
        <text fill="#000000" font-size="13" lengthAdjust="spacingAndGlyphs" textLength="116" x="107" y="20">ProcessSMSThread</text>
        <rect fill="#FEFECE" filter="url(#f1)" height="30.3516" style="stroke: #A80036; stroke-width: 1.5;" width="130" x="100" y="521.6484"/>
        <text fill="#000000" font-size="13" lengthAdjust="spacingAndGlyphs" textLength="116" x="107" y="541.6484">ProcessSMSThread</text>
        <rect fill="#FEFECE" filter="url(#f1)" height="30.3516" style="stroke: #A80036; stroke-width: 1.5;" width="119" x="244" y="0"/>
        <text fill="#000000" font-size="13" lengthAdjust="spacingAndGlyphs" textLength="105" x="251" y="20">CommGPSThread</text>
        <rect fill="#FEFECE" filter="url(#f1)" height="30.3516" style="stroke: #A80036; stroke-width: 1.5;" width="119" x="244" y="521.6484"/>
        <text fill="#000000" font-size="13" lengthAdjust="spacingAndGlyphs" textLength="105" x="251" y="541.6484">CommGPSThread</text>
        <rect fill="#FEFECE" filter="url(#f1)" height="30.3516" style="stroke: #A80036; stroke-width: 1.5;" width="131" x="377" y="0"/>
        <text fill="#000000" font-size="13" lengthAdjust="spacingAndGlyphs" textLength="117" x="384" y="20">SocketGPRSThread</text>
        <rect fill="#FEFECE" filter="url(#f1)" height="30.3516" style="stroke: #A80036; stroke-width: 1.5;" width="131" x="377" y="521.6484"/>
        <text fill="#000000" font-size="13" lengthAdjust="spacingAndGlyphs" textLength="117" x="384" y="541.6484">SocketGPRSThread</text>
        <rect fill="#FEFECE" filter="url(#f1)" height="30.3516" style="stroke: #A80036; stroke-width: 1.5;" width="125" x="522" y="0"/>
        <text fill="#000000" font-size="13" lengthAdjust="spacingAndGlyphs" textLength="111" x="529" y="20">CommASC0Thread</text>
        <rect fill="#FEFECE" filter="url(#f1)" height="30.3516" style="stroke: #A80036; stroke-width: 1.5;" width="125" x="522" y="521.6484"/>
        <text fill="#000000" font-size="13" lengthAdjust="spacingAndGlyphs" textLength="111" x="529" y="541.6484">CommASC0Thread</text>
        <rect fill="#FEFECE" filter="url(#f1)" height="30.3516" style="stroke: #A80036; stroke-width: 1.5;" width="142" x="661" y="0"/>
        <text fill="#000000" font-size="13" lengthAdjust="spacingAndGlyphs" textLength="128" x="668" y="20">GPIO6WatchDogTask</text>
        <rect fill="#FEFECE" filter="url(#f1)" height="30.3516" style="stroke: #A80036; stroke-width: 1.5;" width="142" x="661" y="521.6484"/>
        <text fill="#000000" font-size="13" lengthAdjust="spacingAndGlyphs" textLength="128" x="668" y="541.6484">GPIO6WatchDogTask</text>
        <rect fill="#FEFECE" filter="url(#f1)" height="30.3516" style="stroke: #A80036; stroke-width: 1.5;" width="110" x="817" y="0"/>
        <text fill="#000000" font-size="13" lengthAdjust="spacingAndGlyphs" textLength="96" x="824" y="20">ChoralWatchdog</text>
        <rect fill="#FEFECE" filter="url(#f1)" height="30.3516" style="stroke: #A80036; stroke-width: 1.5;" width="110" x="817" y="521.6484"/>
        <text fill="#000000" font-size="13" lengthAdjust="spacingAndGlyphs" textLength="96" x="824" y="541.6484">ChoralWatchdog</text>
        <rect fill="#FEFECE" filter="url(#f1)" height="30.3516" style="stroke: #A80036; stroke-width: 1.5;" width="157" x="941" y="0"/>
        <text fill="#000000" font-size="13" lengthAdjust="spacingAndGlyphs" textLength="143" x="948" y="20">UserwareWatchDogTask</text>
        <rect fill="#FEFECE" filter="url(#f1)" height="30.3516" style="stroke: #A80036; stroke-width: 1.5;" width="157" x="941" y="521.6484"/>
        <text fill="#000000" font-size="13" lengthAdjust="spacingAndGlyphs" textLength="143" x="948" y="541.6484">UserwareWatchDogTask</text>
        <rect fill="#FEFECE" filter="url(#f1)" height="30.3516" style="stroke: #A80036; stroke-width: 1.5;" width="124" x="1112" y="0"/>
        <text fill="#000000" font-size="13" lengthAdjust="spacingAndGlyphs" textLength="110" x="1119" y="20">CinterionWatchdog</text>
        <rect fill="#FEFECE" filter="url(#f1)" height="30.3516" style="stroke: #A80036; stroke-width: 1.5;" width="124" x="1112" y="521.6484"/>
        <text fill="#000000" font-size="13" lengthAdjust="spacingAndGlyphs" textLength="110" x="1119" y="541.6484">CinterionWatchdog</text>
        <polygon fill="#A80036" points="155,63.3516,165,67.3516,155,71.3516,159,67.3516" style="stroke: #A80036; stroke-width: 1.0;"/>
        <line style="stroke: #A80036; stroke-width: 1.0;" x1="47.5" x2="161" y1="67.3516" y2="67.3516"/>
        <text fill="#000000" font-size="13" lengthAdjust="spacingAndGlyphs" textLength="32" x="54.5" y="62.3516">setup</text>
        <polygon fill="#A80036" points="293.5,93.7031,303.5,97.7031,293.5,101.7031,297.5,97.7031" style="stroke: #A80036; stroke-width: 1.0;"/>
        <line style="stroke: #A80036; stroke-width: 1.0; stroke-dasharray: 2.0,2.0;" x1="47.5" x2="299.5" y1="97.7031" y2="97.7031"/>
        <text fill="#000000" font-size="13" lengthAdjust="spacingAndGlyphs" textLength="26" x="54.5" y="92.7031">start</text>
        <polygon fill="#A80036" points="432.5,124.0547,442.5,128.0547,432.5,132.0547,436.5,128.0547" style="stroke: #A80036; stroke-width: 1.0;"/>
        <line style="stroke: #A80036; stroke-width: 1.0; stroke-dasharray: 2.0,2.0;" x1="47.5" x2="438.5" y1="128.0547" y2="128.0547"/>
        <text fill="#000000" font-size="13" lengthAdjust="spacingAndGlyphs" textLength="26" x="54.5" y="123.0547">start</text>
        <polygon fill="#A80036" points="574.5,154.4063,584.5,158.4063,574.5,162.4063,578.5,158.4063" style="stroke: #A80036; stroke-width: 1.0;"/>
        <line style="stroke: #A80036; stroke-width: 1.0; stroke-dasharray: 2.0,2.0;" x1="47.5" x2="580.5" y1="158.4063" y2="158.4063"/>
        <text fill="#000000" font-size="13" lengthAdjust="spacingAndGlyphs" textLength="26" x="54.5" y="153.4063">start</text>
        <polygon fill="#A80036" points="432.5,184.7578,442.5,188.7578,432.5,192.7578,436.5,188.7578" style="stroke: #A80036; stroke-width: 1.0;"/>
        <line style="stroke: #A80036; stroke-width: 1.0; stroke-dasharray: 2.0,2.0;" x1="305.5" x2="438.5" y1="188.7578" y2="188.7578"/>
        <text fill="#000000" font-size="13" lengthAdjust="spacingAndGlyphs" textLength="18" x="312.5" y="183.7578">put</text>
        <polygon fill="#A80036" points="722,215.1094,732,219.1094,722,223.1094,726,219.1094" style="stroke: #A80036; stroke-width: 1.0;"/>
        <line style="stroke: #A80036; stroke-width: 1.0; stroke-dasharray: 2.0,2.0;" x1="444.5" x2="728" y1="219.1094" y2="219.1094"/>
        <text fill="#000000" font-size="13" lengthAdjust="spacingAndGlyphs" textLength="42" x="451.5" y="214.1094">running</text>
        <polygon fill="#A80036" points="722,245.4609,732,249.4609,722,253.4609,726,249.4609" style="stroke: #A80036; stroke-width: 1.0;"/>
        <line style="stroke: #A80036; stroke-width: 1.0; stroke-dasharray: 2.0,2.0;" x1="305.5" x2="728" y1="249.4609" y2="249.4609"/>
        <text fill="#000000" font-size="13" lengthAdjust="spacingAndGlyphs" textLength="42" x="312.5" y="244.4609">running</text>
        <polygon fill="#A80036" points="862,275.8125,872,279.8125,862,283.8125,866,279.8125" style="stroke: #A80036; stroke-width: 1.0;"/>
        <line style="stroke: #A80036; stroke-width: 1.0;" x1="734" x2="868" y1="279.8125" y2="279.8125"/>
        <text fill="#000000" font-size="13" lengthAdjust="spacingAndGlyphs" textLength="17" x="741" y="274.8125">init</text>
        <polygon fill="#A80036" points="862,306.1641,872,310.1641,862,314.1641,866,310.1641" style="stroke: #A80036; stroke-width: 1.0;"/>
        <line style="stroke: #A80036; stroke-width: 1.0;" x1="734" x2="868" y1="310.1641" y2="310.1641"/>
        <text fill="#000000" font-size="13" lengthAdjust="spacingAndGlyphs" textLength="14" x="741" y="305.1641">on</text>
        <polygon fill="#A80036" points="862,336.5156,872,340.5156,862,344.5156,866,340.5156" style="stroke: #A80036; stroke-width: 1.0;"/>
        <line style="stroke: #A80036; stroke-width: 1.0;" x1="734" x2="868" y1="340.5156" y2="340.5156"/>
        <text fill="#000000" font-size="13" lengthAdjust="spacingAndGlyphs" textLength="13" x="741" y="335.5156">off</text>
        <polygon fill="#A80036" points="1009.5,366.8672,1019.5,370.8672,1009.5,374.8672,1013.5,370.8672" style="stroke: #A80036; stroke-width: 1.0;"/>
        <line style="stroke: #A80036; stroke-width: 1.0; stroke-dasharray: 2.0,2.0;" x1="444.5" x2="1015.5" y1="370.8672" y2="370.8672"/>
        <text fill="#000000" font-size="13" lengthAdjust="spacingAndGlyphs" textLength="42" x="451.5" y="365.8672">running</text>
        <polygon fill="#A80036" points="1009.5,397.2188,1019.5,401.2188,1009.5,405.2188,1013.5,401.2188" style="stroke: #A80036; stroke-width: 1.0;"/>
        <line style="stroke: #A80036; stroke-width: 1.0; stroke-dasharray: 2.0,2.0;" x1="305.5" x2="1015.5" y1="401.2188" y2="401.2188"/>
        <text fill="#000000" font-size="13" lengthAdjust="spacingAndGlyphs" textLength="42" x="312.5" y="396.2188">running</text>
        <polygon fill="#A80036" points="1164,427.5703,1174,431.5703,1164,435.5703,1168,431.5703" style="stroke: #A80036; stroke-width: 1.0;"/>
        <line style="stroke: #A80036; stroke-width: 1.0;" x1="1021.5" x2="1170" y1="431.5703" y2="431.5703"/>
        <text fill="#000000" font-size="13" lengthAdjust="spacingAndGlyphs" textLength="26" x="1028.5" y="426.5703">start</text>
        <polygon fill="#A80036" points="1164,457.9219,1174,461.9219,1164,465.9219,1168,461.9219" style="stroke: #A80036; stroke-width: 1.0;"/>
        <line style="stroke: #A80036; stroke-width: 1.0;" x1="1021.5" x2="1170" y1="461.9219" y2="461.9219"/>
        <text fill="#000000" font-size="13" lengthAdjust="spacingAndGlyphs" textLength="24" x="1028.5" y="456.9219">kick</text>
        <line style="stroke: #A80036; stroke-width: 1.0;" x1="167" x2="209" y1="492.625" y2="492.625"/>
        <line style="stroke: #A80036; stroke-width: 1.0;" x1="209" x2="209" y1="492.625" y2="505.625"/>
        <line style="stroke: #A80036; stroke-width: 1.0;" x1="167" x2="209" y1="505.625" y2="505.625"/>
        <polygon fill="#A80036" points="177,501.625,167,505.625,177,509.625,173,505.625" style="stroke: #A80036; stroke-width: 1.0;"/>
        <text fill="#000000" font-size="13" lengthAdjust="spacingAndGlyphs" textLength="23" x="174" y="487.2734">new</text>
    </g>
</svg>
